<?xml version="1.0" standalone="no"?>
<!DOCTYPE svg PUBLIC "-//W3C//DTD SVG 20010904//EN"
 "http://www.w3.org/TR/2001/REC-SVG-20010904/DTD/svg10.dtd">
<svg version="1.0" xmlns="http://www.w3.org/2000/svg"
 width="512.000000pt" height="512.000000pt" viewBox="0 0 512.000000 512.000000"
 preserveAspectRatio="xMidYMid meet">
<metadata>
Created by potrace 1.11, written by Peter Selinger 2001-2013
</metadata>
<g transform="translate(0.000000,512.000000) scale(0.100000,-0.100000)"
fill="#000000" stroke="none">
<path d="M2428 4905 c-2 -2 -29 -5 -61 -9 -66 -7 -83 -10 -192 -38 -44 -11
-84 -24 -90 -29 -5 -5 -15 -9 -23 -9 -24 0 -194 -90 -282 -149 -47 -32 -143
-97 -213 -144 -119 -80 -280 -167 -310 -167 -7 0 -17 -4 -22 -9 -12 -10 -156
-49 -210 -56 -123 -15 -172 -19 -287 -19 l-128 -1 -1 -25 c0 -14 -3 -43 -6
-65 -13 -109 -5 -580 12 -725 2 -19 7 -57 10 -85 17 -140 18 -147 46 -304 48
-275 171 -709 254 -896 7 -16 29 -68 48 -115 37 -91 117 -260 122 -260 4 0
665 661 683 682 10 12 8 23 -8 60 -114 258 -69 611 108 838 51 65 144 153 207
195 54 36 165 91 201 101 232 59 402 56 577 -12 37 -14 70 -25 72 -23 32 27
775 774 775 779 0 4 -33 26 -72 50 -40 24 -75 46 -78 49 -5 6 -102 73 -238
163 -153 103 -307 166 -493 203 -68 14 -390 29 -401 20z"/>
<path d="M4367 4268 c-7 -4 -242 -237 -524 -519 -449 -449 -511 -514 -503
-533 4 -11 17 -44 28 -72 19 -48 23 -63 39 -159 13 -80 5 -246 -16 -325 -41
-156 -117 -289 -230 -400 -104 -103 -204 -164 -341 -208 -97 -32 -115 -34
-240 -37 -126 -3 -199 8 -319 50 l-77 27 -379 -380 c-209 -209 -388 -389 -399
-401 -20 -22 -21 -19 46 -106 4 -5 25 -34 47 -63 254 -348 634 -690 988 -890
l72 -40 88 50 c409 234 800 610 1097 1053 36 55 71 105 76 112 5 6 19 29 31
50 11 21 30 54 41 73 38 64 117 212 144 269 67 141 123 266 123 274 0 1 11 27
24 57 88 199 229 683 263 905 3 17 9 53 14 80 5 28 12 70 15 94 3 23 7 55 9
70 34 210 49 600 33 856 -4 61 -7 112 -7 115 0 8 -130 6 -143 -2z"/>
<path d="M2460 3227 c-147 -60 -214 -125 -255 -242 -59 -173 13 -353 180 -450
59 -35 76 -39 180 -39 83 0 96 2 159 34 126 63 208 189 209 325 2 219 -160
383 -379 383 -38 0 -80 -5 -94 -11z"/>
</g>
</svg>
